<svg id="Layer_2" data-name="Layer 2" xmlns="http://www.w3.org/2000/svg" viewBox="0 0 307.89 390.19"><defs><style>.cls-1{fill:#6e6e6e;}.cls-2{fill:#bcfd4c;}.cls-3{fill:none;stroke:#737373;stroke-miterlimit:10;stroke-width:3.5px;}</style></defs><title>MyFitWay</title><path class="cls-1" d="M500.74,300c6.68,5.79-74.93,74.73-95,70.11-10-4.79-45.62-46.64-49.71-49,9.54-17.37,9.88-30,11.24-36.09,16.34-2.72,16-6.81,22.47-11.91-15.32,5.1-23.15,5.78-27.24,4.42C361.17,302,345.85,320.06,338,324.15c26.21,14.3,46.31,37.86,52.09,50.38-12.55,3.06-41.88,3.75-50.05,2.73-5.48-2.4-60.59-41.82-60.59-45.94S274,317.68,276.4,315s2.39-.68,6.13-7.49-3.74-24.85,18.38-48.34c12.94-32,11.58-37.79,54.47-36.09,6.81-5.44,30.3-15.65,37.45-15,4.08-7.49,2-7.83,5.11-9.87S370,107,451.38,114.45c2.39,1.49,2.39,1.49,8.51-.45S465,128.06,465,128.06s8.51,15.32,7.15,25.88S464.66,208.4,447,211.13c-1,11.57-1.7,6.47-1,11.57,6.78,4.82,10.55,3.41,15,10.9,2.95,2,43.58-1.37,38.13,52.08C498.9,282,501.18,292.67,500.74,300Z" transform="translate(-259.16 -113.84)"/><path class="cls-2" d="M532.74,261.17c-9.87,44.6-111,183.49-268.59,101.79C325.09,441.94,569.85,417.09,532.74,261.17Z" transform="translate(-259.16 -113.84)"/><path class="cls-2" d="M533.43,344.91c-27.24,41.2-88.52,73.2-140.94,71.83C441.85,430,525.6,423.21,533.43,344.91Z" transform="translate(-259.16 -113.84)"/><path class="cls-3" d="M261.91,502.28a1,1,0,0,1-1-1V456.47a1,1,0,0,1,1-1h10.43a2,2,0,0,1,1.51.86L280,466.7a.57.57,0,0,0,1,0l6.75-10.41a2,2,0,0,1,1.54-.84H299.4a1,1,0,0,1,1,1v44.81a1,1,0,0,1-1,1H288.64a1,1,0,0,1-1-1l-.56-25.58c0-.55-.27-.62-.57-.17l-5.27,7.88a.63.63,0,0,1-1.12,0l-5.67-8.31c-.31-.45-.56-.37-.57.18l-.17,26a1,1,0,0,1-1,1Z" transform="translate(-259.16 -113.84)"/><path class="cls-3" d="M305.23,455.47a.63.63,0,0,0-.63.93l11,28.27a6.34,6.34,0,0,1,.36,1.93v14.68a1,1,0,0,0,1,1h10.76a1,1,0,0,0,1-1V487.11a6.35,6.35,0,0,1,.37-1.93l11.35-28.78a.63.63,0,0,0-.63-.93H328.38a1.46,1.46,0,0,0-1.3.95l-4.25,13.42c-.16.52-.44.52-.61,0l-4.4-13.42a1.48,1.48,0,0,0-1.31-.95Z" transform="translate(-259.16 -113.84)"/><path class="cls-3" d="M345.57,455.47a1,1,0,0,0-1,1v44.81a1,1,0,0,0,1,1h10.6a1,1,0,0,0,1-1V485.41a1,1,0,0,1,1-1l8.55-.14a1,1,0,0,0,1-1v-9.07a1,1,0,0,0-1-1h-8.21a1,1,0,0,1-1-1v-4.81a1,1,0,0,1,1-1l15,.15a1,1,0,0,0,1-1v-9.06a1,1,0,0,0-1-1Z" transform="translate(-259.16 -113.84)"/><rect class="cls-3" x="119.28" y="341.63" width="12.26" height="46.81" rx="1"/><path class="cls-3" d="M394.62,456.47a1,1,0,0,1,1-1h31.87a1,1,0,0,1,1,1v8.89a1,1,0,0,1-1,1h-9.23a1,1,0,0,0-1,1l.16,33.92a1,1,0,0,1-1,1H406.17a1,1,0,0,1-1-1l-.33-34.09a1,1,0,0,0-1-1h-8.2a1,1,0,0,1-1-1Z" transform="translate(-259.16 -113.84)"/><path class="cls-3" d="M432.28,456.45a.77.77,0,0,1,.78-1h10.43a1.25,1.25,0,0,1,1.18,1l3.55,18.8c.1.54.27.54.37,0l3.54-18.8a1.27,1.27,0,0,1,1.19-1h8.89a1.31,1.31,0,0,1,1.22,1l4.16,18.81c.12.54.3.53.4,0l3.39-18.8a1.23,1.23,0,0,1,1.17-1h11.11a.78.78,0,0,1,.79,1l-9.62,44.85a1.3,1.3,0,0,1-1.21,1H463a1.25,1.25,0,0,1-1.18-1l-3.9-21.44c-.09-.54-.24-.54-.31,0l-3,21.42a1.2,1.2,0,0,1-1.14,1H443.45a1.31,1.31,0,0,1-1.22-1Z" transform="translate(-259.16 -113.84)"/><path class="cls-3" d="M499.05,456.44a1.37,1.37,0,0,1,1.25-1h13.49a1.35,1.35,0,0,1,1.24,1l11.43,44.87a.75.75,0,0,1-.76,1H514.6a1.43,1.43,0,0,1-1.29-1L512,497.07a1.47,1.47,0,0,0-1.28-1l-8.41-.17a1.39,1.39,0,0,0-1.3.93l-1.44,4.48a1.46,1.46,0,0,1-1.3.95h-9.92a.74.74,0,0,1-.75-1Z" transform="translate(-259.16 -113.84)"/><path class="cls-3" d="M507.52,472c-.12-.53-.33-.54-.47,0l-3.16,12.2a.73.73,0,0,0,.75,1h4.81a.76.76,0,0,0,.78-1Z" transform="translate(-259.16 -113.84)"/><path class="cls-3" d="M529.45,456a.64.64,0,0,1,.64-.93H541a1.51,1.51,0,0,1,1.33.95l4.6,13.17c.18.52.48.53.67,0L552.4,456a1.55,1.55,0,0,1,1.34-.94H564.6a.64.64,0,0,1,.64.94l-10.78,28.34a6.79,6.79,0,0,0-.36,1.94l-.15,15a1,1,0,0,1-1,1h-10.6a1,1,0,0,1-1-1l-.15-14.34a6.67,6.67,0,0,0-.37-1.93Z" transform="translate(-259.16 -113.84)"/></svg>